<svg id="Group_36" data-name="Group 36" xmlns="http://www.w3.org/2000/svg" xmlns:xlink="http://www.w3.org/1999/xlink" width="77.52" height="71.216" viewBox="0 0 77.52 71.216">
  <defs>
    <clipPath id="clip-path">
      <rect id="Rectangle_44" data-name="Rectangle 44" width="77.52" height="71.216" fill="none"/>
    </clipPath>
  </defs>
  <path id="Path_182" data-name="Path 182" d="M0,66.374V77.539H6.3V75.256H2.433V66.374Z" transform="translate(0 -33.843)" fill="#161615"/>
  <rect id="Rectangle_42" data-name="Rectangle 42" width="2.433" height="11.164" transform="translate(12.414 32.531)" fill="#161615"/>
  <g id="Group_35" data-name="Group 35">
    <g id="Group_34" data-name="Group 34" clip-path="url(#clip-path)">
      <path id="Path_183" data-name="Path 183" d="M45.6,76.779a5.361,5.361,0,0,1-2.025-2.066,6.241,6.241,0,0,1,.033-5.932A5.585,5.585,0,0,1,45.7,66.665a5.764,5.764,0,0,1,2.941-.767,5.88,5.88,0,0,1,2.433.508A5.551,5.551,0,0,1,53,67.831l-1.7,1.666a3.421,3.421,0,0,0-2.616-1.183,3.331,3.331,0,0,0-1.7.433,3,3,0,0,0-1.166,1.217,3.966,3.966,0,0,0,.008,3.557,3.061,3.061,0,0,0,1.191,1.233,3.44,3.44,0,0,0,1.75.442,3.378,3.378,0,0,0,2.183-.767V72.913H48.822V70.88h4.566V75.4a6.017,6.017,0,0,1-2.158,1.575,6.768,6.768,0,0,1-2.742.558,5.645,5.645,0,0,1-2.891-.75" transform="translate(-21.844 -33.601)" fill="#161615"/>
      <path id="Path_184" data-name="Path 184" d="M84.2,70.741V66.375h2.433V77.539H84.2V73.023H79.85v4.515H77.417V66.375H79.85v4.366Z" transform="translate(-39.474 -33.844)" fill="#161615"/>
      <path id="Path_185" data-name="Path 185" d="M113.869,77.539h-2.433V68.658h-3.249V66.375h8.932v2.283h-3.249Z" transform="translate(-55.163 -33.844)" fill="#161615"/>
      <path id="Path_186" data-name="Path 186" d="M0,110.339V99.175H4.416a6.061,6.061,0,0,1,2.958.724,5.387,5.387,0,0,1,2.083,2,5.761,5.761,0,0,1,.008,5.7,5.381,5.381,0,0,1-2.075,2.008,6.033,6.033,0,0,1-2.974.733Zm4.433-2.283a3.228,3.228,0,0,0,1.649-.425,3.021,3.021,0,0,0,1.15-1.183,3.642,3.642,0,0,0,0-3.383,3.025,3.025,0,0,0-1.15-1.183,3.228,3.228,0,0,0-1.649-.425h-2v6.6Z" transform="translate(0 -50.568)" fill="#161615"/>
      <path id="Path_187" data-name="Path 187" d="M35.855,105.74v2.333h4.033v2.266H33.422V99.175H39.8v2.266H35.855v2.1h2.883v2.2Z" transform="translate(-17.041 -50.568)" fill="#161615"/>
      <path id="Path_188" data-name="Path 188" d="M59.058,109.764a4.322,4.322,0,0,1-1.666-1.65l1.7-1.416a2.6,2.6,0,0,0,2.283,1.55,1.61,1.61,0,0,0,1.024-.308.979.979,0,0,0,.392-.808,1.035,1.035,0,0,0-.425-.85,7.852,7.852,0,0,0-1.358-.783,14.85,14.85,0,0,1-1.509-.833,3.448,3.448,0,0,1-1.016-1.041,2.9,2.9,0,0,1-.425-1.609,3.178,3.178,0,0,1,.467-1.716,3.226,3.226,0,0,1,1.291-1.175,4.034,4.034,0,0,1,1.875-.425,4.451,4.451,0,0,1,3.583,1.816l-1.616,1.45a3.515,3.515,0,0,0-.933-.9,1.953,1.953,0,0,0-1.033-.283,1.313,1.313,0,0,0-.875.274.924.924,0,0,0-.325.742,1.027,1.027,0,0,0,.433.849,8.146,8.146,0,0,0,1.366.784,13.476,13.476,0,0,1,1.516.833,3.493,3.493,0,0,1,1.008,1.041,2.939,2.939,0,0,1,.425,1.625,3.23,3.23,0,0,1-.492,1.783,3.3,3.3,0,0,1-1.358,1.192,4.488,4.488,0,0,1-2,.425,4.774,4.774,0,0,1-2.333-.567" transform="translate(-29.263 -50.325)" fill="#161615"/>
      <rect id="Rectangle_43" data-name="Rectangle 43" width="2.433" height="11.164" transform="translate(42.192 48.607)" fill="#161615"/>
      <path id="Path_189" data-name="Path 189" d="M106.355,109.58a5.356,5.356,0,0,1-2.025-2.066,6.24,6.24,0,0,1,.034-5.932,5.579,5.579,0,0,1,2.091-2.116A5.767,5.767,0,0,1,109.4,98.7a5.876,5.876,0,0,1,2.433.508,5.541,5.541,0,0,1,1.933,1.424l-1.7,1.667a3.42,3.42,0,0,0-2.616-1.183,3.334,3.334,0,0,0-1.7.433,3,3,0,0,0-1.166,1.216,3.969,3.969,0,0,0,.009,3.558,3.059,3.059,0,0,0,1.191,1.233,3.435,3.435,0,0,0,1.75.442,3.378,3.378,0,0,0,2.183-.767v-1.516h-2.133v-2.033h4.566V108.2a6.013,6.013,0,0,1-2.158,1.575,6.766,6.766,0,0,1-2.741.558,5.649,5.649,0,0,1-2.891-.75" transform="translate(-52.823 -50.325)" fill="#161615"/>
      <path id="Path_190" data-name="Path 190" d="M145.673,106.023V99.175h2.3V110.34h-1.716l-5.782-6.865v6.865h-2.3V99.175h1.716Z" transform="translate(-70.454 -50.568)" fill="#161615"/>
      <path id="Path_191" data-name="Path 191" d="M4.269,139.521H3.816l-.558-1.553H.994l-.558,1.553H0l1.99-5.418h.3Zm-1.157-1.94-.987-2.75-.995,2.75Z" transform="translate(0.001 -68.378)" fill="#161615"/>
      <path id="Path_192" data-name="Path 192" d="M15.767,134.1a2.173,2.173,0,0,1,.954.2,1.585,1.585,0,0,1,.655.562,1.555,1.555,0,0,1,0,1.641,1.548,1.548,0,0,1-.655.558,2.207,2.207,0,0,1-.954.2h-.793v2.256h-.421V134.1Zm-.008,2.766a1.581,1.581,0,0,0,1.039-.323,1.142,1.142,0,0,0,0-1.727,1.573,1.573,0,0,0-1.035-.328h-.785v2.378Z" transform="translate(-7.42 -68.377)" fill="#161615"/>
      <path id="Path_193" data-name="Path 193" d="M27.464,136.909v2.224H29.8v.388H27.043V134.1h2.717v.388h-2.3v2.03h1.771v.388Z" transform="translate(-13.789 -68.377)" fill="#161615"/>
      <path id="Path_194" data-name="Path 194" d="M41.8,139.521H39.121V134.1h.42v5.031H41.8Z" transform="translate(-19.947 -68.377)" fill="#161615"/>
      <path id="Path_195" data-name="Path 195" d="M50.868,139.52V134.1h1.69a3.186,3.186,0,0,1,1.5.352,2.665,2.665,0,0,1,1.052.966,2.581,2.581,0,0,1,.38,1.384,2.615,2.615,0,0,1-.38,1.394,2.651,2.651,0,0,1-1.052.97,3.185,3.185,0,0,1-1.5.351Zm1.69-.388a2.662,2.662,0,0,0,1.277-.3,2.288,2.288,0,0,0,.89-.833,2.265,2.265,0,0,0-.886-3.207,2.722,2.722,0,0,0-1.282-.3h-1.27v4.642Z" transform="translate(-25.937 -68.377)" fill="#161615"/>
      <path id="Path_196" data-name="Path 196" d="M67.466,139.146a2.729,2.729,0,0,1-.987-1.011,2.873,2.873,0,0,1,0-2.8,2.728,2.728,0,0,1,.987-1.011,2.663,2.663,0,0,1,2.717,0,2.731,2.731,0,0,1,.987,1.011,2.873,2.873,0,0,1,0,2.8,2.732,2.732,0,0,1-.987,1.011,2.669,2.669,0,0,1-2.717,0m2.5-.352a2.232,2.232,0,0,0,.821-.853,2.578,2.578,0,0,0,0-2.41,2.227,2.227,0,0,0-.821-.853,2.26,2.26,0,0,0-2.289,0,2.231,2.231,0,0,0-.821.853,2.578,2.578,0,0,0,0,2.41,2.236,2.236,0,0,0,.821.853,2.257,2.257,0,0,0,2.289,0" transform="translate(-33.711 -68.302)" fill="#161615"/>
      <path id="Path_197" data-name="Path 197" d="M84.328,139.146a2.732,2.732,0,0,1-.987-1.011,2.869,2.869,0,0,1,0-2.8,2.73,2.73,0,0,1,.987-1.011,2.663,2.663,0,0,1,2.717,0,2.727,2.727,0,0,1,.987,1.011,2.87,2.87,0,0,1,0,2.8,2.728,2.728,0,0,1-.987,1.011,2.669,2.669,0,0,1-2.717,0m2.5-.352a2.229,2.229,0,0,0,.821-.853,2.578,2.578,0,0,0,0-2.41,2.224,2.224,0,0,0-.821-.853,2.259,2.259,0,0,0-2.288,0,2.223,2.223,0,0,0-.821.853,2.578,2.578,0,0,0,0,2.41,2.229,2.229,0,0,0,.821.853,2.256,2.256,0,0,0,2.288,0" transform="translate(-42.309 -68.302)" fill="#161615"/>
      <path id="Path_198" data-name="Path 198" d="M103.856,139.521h-.5l-1.553-2.313h-.882v2.313H100.5V134.1h1.221a2.216,2.216,0,0,1,.954.2,1.574,1.574,0,0,1,.655.55,1.423,1.423,0,0,1,.235.8,1.392,1.392,0,0,1-.356.958,1.76,1.76,0,0,1-.946.538Zm-2.935-5.03v2.321h.8a1.6,1.6,0,0,0,1.031-.315,1.1,1.1,0,0,0,0-1.687,1.586,1.586,0,0,0-1.031-.319Z" transform="translate(-51.244 -68.378)" fill="#161615"/>
      <path id="Path_199" data-name="Path 199" d="M117.351,138.7V134.1h.4v5.418h-.267l-3.6-4.593v4.593h-.4V134.1h.267Z" transform="translate(-57.865 -68.377)" fill="#161615"/>
      <path id="Path_200" data-name="Path 200" d="M0,26.618H6.634l15.584-8.855,4.828,8.855h6.524L20.261,0H13.309Z" fill="#040506"/>
    </g>
  </g>
</svg>
